# xmcd
#
# Track frame offsets: 
#        150
#        25901
#        49339
#        73650
#        94786
#        111832
#        138148
#        157869
#        178928
#        198275
#        227186
#
# Disc length: 3245 seconds
#
# Revision: 0
# Processed by: cddbd v1.5.2PL0 Copyright (c) Steve Scherf et al.
# Submitted via: ExactAudioCopy v1.3
#
DISCID=920cab0b
DTITLE=松山三四六 - うたたね
DYEAR=2017
DGENRE=JPop
TTITLE0=転寝
TTITLE1=答えは僕のなか
TTITLE2=LET ME CRY
TTITLE3=バカヤロー・サンセット
TTITLE4=シアワセノカタチ
TTITLE5=風の栄光
TTITLE6=丘の上の煙突
TTITLE7=君だけの空
TTITLE8=種
TTITLE9=あの日の少年
TTITLE10=Jasmine
EXTD=
EXTT0=
EXTT1=
EXTT2=
EXTT3=
EXTT4=
EXTT5=
EXTT6=
EXTT7=
EXTT8=
EXTT9=
EXTT10=
PLAYORDER=
